<?xml version="1.0" encoding="UTF-8"?>
<svg id="Layer_1" data-name="Layer 1" xmlns="http://www.w3.org/2000/svg" viewBox="0 0 869.72 713.9">
  <defs>
    <style>
      .cls-1 {
        fill: #418e63;
      }
    </style>
  </defs>
  <path class="cls-1" d="M225.89,166.76c0-50.09,30.44-81.16,77.99-81.16s77.99,30.44,77.99,80.53-30.44,81.16-77.99,81.16-77.99-31.07-77.99-80.53m76.72,139.49h4.44c39.95,0,69.75,18.39,69.75,58.33,0,35.51-23.46,58.34-79.26,58.34-46.92,0-91.94-14.59-133.16-35.51v69.75c45.65,21.56,94.48,31.07,138.86,31.07,94.48,0,149.64-44.38,149.64-115.4,0-45.02-22.19-76.09-55.8-94.47,36.14-25.36,57.7-65.95,57.7-113.5,0-22.83-4.44-43.75-13.32-62.14L485.23,0h-71.01l-20.29,47.56c-24.73-15.85-55.16-25.36-90.04-25.36-89.4,0-150.91,60.87-150.91,143.93s62.14,140.13,149.64,140.13"/>
  <path class="cls-1" d="M457.17,166.76c0-50.09,30.44-81.16,77.99-81.16s77.99,30.44,77.99,80.53-30.44,81.16-77.99,81.16-77.99-31.07-77.99-80.53m76.72,139.49h4.44c39.95,0,69.75,18.39,69.75,58.33,0,35.51-23.46,58.34-79.26,58.34-46.92,0-91.94-14.59-133.16-35.51v69.75c45.65,21.56,94.48,31.07,138.86,31.07,94.48,0,149.64-44.38,149.64-115.4,0-45.02-22.19-76.09-55.8-94.47,36.14-25.36,57.7-65.95,57.7-113.5,0-22.83-4.44-43.75-13.32-62.14L716.51,0h-71.01l-20.29,47.56c-24.73-15.85-55.16-25.36-90.04-25.36-89.4,0-150.91,60.87-150.91,143.93s62.14,140.13,149.64,140.13"/>
  <path class="cls-1" d="M345.27,191.83c11.55,0,20.91-9.41,20.91-21.02s-9.36-21.02-20.91-21.02-20.91,9.41-20.91,21.02,9.36,21.02,20.91,21.02"/>
  <path class="cls-1" d="M577.27,191.83c11.55,0,20.91-9.41,20.91-21.02s-9.36-21.02-20.91-21.02-20.91,9.41-20.91,21.02,9.36,21.02,20.91,21.02"/>
  <path class="cls-1" d="M842.8,690.81c11.02,0,18.8-3.83,24.02-7.77v-9.63c-7.31,5.34-14.27,8.36-22.86,8.36-12.07,0-19.03-6.15-19.03-12.3,0-5.57,6.15-8.93,13.46-8.93,3.71,0,7.54,.81,11.14,2.44v-8.7c-3.13-1.39-6.61-1.97-9.86-1.97-6.85,0-13.46,2.79-16.59,10.44-1.05-13.92,4.99-24.37,19.37-24.37,10.68,0,17.29,5.69,17.99,16.13h9.28c-.23-16.82-11.14-25.29-26.92-25.29-19.49,0-29.82,12.42-29.82,30.86s9.98,30.75,29.82,30.75m-64.16,0c11.02,0,18.79-3.83,24.02-7.77v-9.63c-7.31,5.34-14.27,8.36-22.86,8.36-12.07,0-19.03-6.15-19.03-12.3,0-5.57,6.15-8.93,13.46-8.93,3.71,0,7.54,.81,11.14,2.44v-8.7c-3.13-1.39-6.61-1.97-9.86-1.97-6.84,0-13.46,2.79-16.59,10.44-1.04-13.92,4.99-24.37,19.38-24.37,10.67,0,17.29,5.69,17.98,16.13h9.28c-.23-16.82-11.14-25.29-26.92-25.29-19.49,0-29.82,12.42-29.82,30.86s9.98,30.75,29.82,30.75m-56.04-1.27h20.3v-8.82h-10.21v-41.54h9.98v-8.82h-9.98v-13.81l-10.09,1.74v12.07h-8.12v8.82h8.12v50.35Zm-65.2,0h10.09v-34c0-9.98,6.73-17.52,16.36-17.52,8.01,0,12.07,5.22,12.07,14.5v37.01h10.1v-40.72c0-12.18-6.73-19.84-18.22-19.84-10.44,0-17.29,6.03-20.3,14.85v-13.46h-10.09v59.17Zm-49.77-17.17c0-7.08,5.1-10.33,12.3-10.33,7.89,0,13.23,3.95,13.23,9.98,0,6.38-5.8,10.56-13.81,10.56-6.61,0-11.72-3.13-11.72-10.21m26.69,17.17h8.93v-40.14c0-13.23-7.77-20.3-22.04-20.3-12.88,0-21.46,5.68-22.62,17.87h8.94c1.16-6.38,5.45-9.28,12.88-9.28,8.58,0,12.76,4.18,12.76,11.84v12.18c-3.48-4.52-9.4-6.73-16.01-6.73-11.02,0-19.96,5.8-19.96,17.99,0,11.49,8.24,17.87,19.14,17.87,7.78,0,13.92-3.13,17.29-8.47l.7,7.19Zm-70.2,0h10.1v-27.5c0-15.43,9.4-22.28,18.91-21.46v-11.02c-9.51,.11-16.01,6.15-18.91,17.17v-16.36h-10.1v59.17Zm-56.04-34.69c0-10.33,6.5-16.82,16.36-16.82s16.24,6.38,16.24,16.71-6.5,16.82-16.24,16.82-16.36-6.38-16.36-16.71m16.13,24.94h.81c8.12,0,14.85,3.71,14.85,12.65,0,7.42-4.76,12.53-16.25,12.53-8.58,0-16.47-2.67-23.67-6.26v9.63c7.54,3.71,16.24,5.57,24.36,5.57,16.71,0,25.87-8.35,25.87-20.65,0-8.47-4.29-14.27-10.9-17.4,7.19-4.41,11.37-12.07,11.37-21.23,0-4.29-.93-8.24-2.67-11.72l8-17.98h-9.75l-4.52,10.21c-4.52-3.71-10.44-5.8-17.4-5.8-15.66,0-26.22,10.79-26.22,25.41s10.68,25.06,26.11,25.06m-117.6-54.41c0-6.73,4.18-10.44,9.98-10.44,5.45,0,9.52,3.48,9.52,9.17,0,4.76-2.09,7.77-6.61,11.95l-4.41,4.06c-4.87-5.1-8.47-8.7-8.47-14.73m-9.86,46.64c0-4.76,2.09-8.12,6.15-11.84l9.63-8.58,15.43,16.24-5.92,5.68c-5.1,4.87-9.63,8.24-15.2,8.24-6.03,0-10.1-3.83-10.1-9.75m8.93,18.68c8.36,0,14.97-3.6,22.51-10.68l5.92-5.68,14.39,15.2h13.34l-20.65-21.81,15.31-14.73-6.03-6.73-15.55,14.85-14.27-15.08,5.45-4.76c6.61-5.68,9.51-10.91,9.51-17.17,0-10.44-8.24-16.94-19.03-16.94s-20.54,6.5-20.54,18.33c0,8.7,5.34,14.62,10.68,20.07l-10.1,8.93c-7.66,6.26-10.21,12.18-10.21,18.33,0,11.02,7.66,17.87,19.26,17.87m-83.6-1.16h10.1v-27.5c0-15.43,9.4-22.28,18.91-21.46v-11.02c-9.51,.11-16.01,6.15-18.91,17.17v-16.36h-10.1v59.17Zm-61.38-29.47c0-12.76,8.01-21.7,19.96-21.7s19.84,8.94,19.84,21.7-8,21.7-19.84,21.7-19.96-9.05-19.96-21.7m19.96,30.75c17.4,0,30.28-13.11,30.28-30.75s-12.88-30.86-30.28-30.86-30.4,13.11-30.4,30.86,12.88,30.75,30.4,30.75m-56.16-1.27h20.31v-8.82h-10.21v-41.54h9.98v-8.82h-9.98v-13.81l-10.1,1.74v12.07h-8.12v8.82h8.12v50.35Zm-65.2,0h10.1v-34c0-9.98,6.73-17.52,16.36-17.52,8,0,12.07,5.22,12.07,14.5v37.01h10.09v-40.72c0-12.18-6.73-19.84-18.21-19.84-10.44,0-17.29,6.03-20.31,14.85v-13.46h-10.1v59.17Zm-49.77-17.17c0-7.08,5.11-10.33,12.3-10.33,7.89,0,13.23,3.95,13.23,9.98,0,6.38-5.8,10.56-13.81,10.56-6.61,0-11.72-3.13-11.72-10.21m26.68,17.17h8.93v-40.14c0-13.23-7.77-20.3-22.04-20.3-12.88,0-21.46,5.68-22.62,17.87h8.93c1.16-6.38,5.45-9.28,12.88-9.28,8.59,0,12.76,4.18,12.76,11.84v12.18c-3.48-4.52-9.4-6.73-16.01-6.73-11.02,0-19.96,5.8-19.96,17.99,0,11.49,8.24,17.87,19.15,17.87,7.77,0,13.92-3.13,17.29-8.47l.7,7.19Zm-70.19,0h10.09v-27.5c0-15.43,9.4-22.28,18.91-21.46v-11.02c-9.52,.11-16.01,6.15-18.91,17.17v-16.36h-10.09v59.17Zm-56.04-34.69c0-10.33,6.5-16.82,16.36-16.82s16.24,6.38,16.24,16.71-6.5,16.82-16.24,16.82-16.36-6.38-16.36-16.71m16.13,24.94h.81c8.12,0,14.85,3.71,14.85,12.65,0,7.42-4.76,12.53-16.24,12.53-8.59,0-16.47-2.67-23.67-6.26v9.63c7.54,3.71,16.25,5.57,24.37,5.57,16.71,0,25.87-8.35,25.87-20.65,0-8.47-4.29-14.27-10.91-17.4,7.19-4.41,11.37-12.07,11.37-21.23,0-4.29-.93-8.24-2.67-11.72l8-17.98h-9.74l-4.52,10.21c-4.52-3.71-10.44-5.8-17.4-5.8-15.66,0-26.22,10.79-26.22,25.41s10.67,25.06,26.1,25.06"/>
</svg>