<?xml version="1.0" encoding="UTF-8"?>
<svg id="Layer_1" data-name="Layer 1" xmlns="http://www.w3.org/2000/svg" viewBox="0 0 563.53 488.23">
  <defs>
    <style>
      .cls-1 {
        fill: #418e63;
      }
    </style>
  </defs>
  <path class="cls-1" d="M72.92,166.76c0-50.09,30.44-81.16,77.99-81.16s77.99,30.44,77.99,80.53-30.44,81.16-77.99,81.16-77.99-31.07-77.99-80.53m76.72,139.49h4.44c39.95,0,69.75,18.39,69.75,58.33,0,35.51-23.46,58.34-79.26,58.34-46.92,0-91.94-14.59-133.16-35.51v69.75c45.65,21.56,94.48,31.07,138.86,31.07,94.48,0,149.64-44.38,149.64-115.4,0-45.02-22.19-76.09-55.8-94.47,36.14-25.36,57.7-65.95,57.7-113.5,0-22.83-4.44-43.75-13.32-62.14L332.25,0h-71.01l-20.29,47.56c-24.73-15.85-55.16-25.36-90.04-25.36C61.5,22.19,0,83.06,0,166.13s62.14,140.13,149.64,140.13"/>
  <path class="cls-1" d="M304.2,166.76c0-50.09,30.44-81.16,77.99-81.16s77.99,30.44,77.99,80.53-30.44,81.16-77.99,81.16-77.99-31.07-77.99-80.53m76.72,139.49h4.44c39.95,0,69.75,18.39,69.75,58.33,0,35.51-23.46,58.34-79.26,58.34-46.92,0-91.94-14.59-133.16-35.51v69.75c45.65,21.56,94.48,31.07,138.86,31.07,94.48,0,149.64-44.38,149.64-115.4,0-45.02-22.19-76.09-55.8-94.47,36.14-25.36,57.7-65.95,57.7-113.5,0-22.83-4.44-43.75-13.32-62.14L563.53,0h-71.01l-20.29,47.56c-24.73-15.85-55.16-25.36-90.04-25.36-89.4,0-150.91,60.87-150.91,143.93s62.14,140.13,149.64,140.13"/>
  <path class="cls-1" d="M192.29,191.83c11.55,0,20.91-9.41,20.91-21.02s-9.36-21.02-20.91-21.02-20.91,9.41-20.91,21.02,9.36,21.02,20.91,21.02"/>
  <path class="cls-1" d="M424.29,191.83c11.55,0,20.91-9.41,20.91-21.02s-9.36-21.02-20.91-21.02-20.91,9.41-20.91,21.02,9.36,21.02,20.91,21.02"/>
</svg>